<svg width="85" height="35" viewBox="0 0 85 35" fill="none" xmlns="http://www.w3.org/2000/svg">
<path d="M43.8351 31.8123L43.4088 31.3594V31.3862L43.8355 31.8787C43.839 31.883 43.8429 31.8873 43.846 31.8919C43.8479 31.8943 43.8498 31.897 43.8514 31.8997C43.8541 31.9036 43.8564 31.9071 43.8584 31.911C43.8607 31.9137 43.8623 31.9164 43.8634 31.9192C43.8662 31.9238 43.8685 31.9289 43.8708 31.9335V31.8632C43.8619 31.8449 43.8495 31.8278 43.8351 31.8123Z" fill="#523C2E"/>
<path d="M4.50681 31.8496L4.43537 31.2576H4.43498L4.50603 31.8496C4.50914 31.8717 4.5072 31.8943 4.50176 31.9153C4.50797 31.8947 4.50992 31.8721 4.50681 31.8496Z" fill="#523C2E"/>
<path d="M42.6451 33.1028L42.5158 32.9628L42.6226 33.0981C42.6707 33.1525 42.7391 33.1786 42.8062 33.1762C42.7472 33.1747 42.689 33.1502 42.6451 33.1028ZM43.8351 31.8122L43.4088 31.3594L43.1192 31.0519L43.4088 31.3862L43.8355 31.8787C43.839 31.883 43.8429 31.8873 43.846 31.8919C43.8479 31.8943 43.8499 31.897 43.8514 31.8997C43.8541 31.9036 43.8565 31.9071 43.8584 31.911C43.8607 31.9137 43.8623 31.9164 43.8634 31.9191C43.8662 31.9238 43.8685 31.9289 43.8708 31.9335V31.8632C43.8619 31.8449 43.8495 31.8278 43.8351 31.8122Z" fill="#523C2E"/>
<path d="M84.1922 33.2046L82.614 29.2961C82.6008 29.2631 82.5841 29.2324 82.5643 29.2036V5.69802C82.626 5.65099 82.6722 5.58374 82.6928 5.50444L83.8875 0.954537C83.9643 0.661446 83.6673 0.410337 83.392 0.535503L79.2288 2.42543H45.173L43.2395 0.194989C43.0139 -0.065061 42.6101 -0.0650611 42.3849 0.195378L40.4538 2.42543H5.01853C5.00222 2.41844 4.98514 2.41261 4.96766 2.40794L0.474779 1.2212C0.167281 1.13995 -0.0967318 1.45248 0.0344983 1.74285L1.82086 5.69608V29.6879C1.79096 29.7249 1.77 29.7692 1.7599 29.8178L0.771018 34.5609C0.717827 34.8166 0.984946 35.0199 1.21673 34.8998L5.37067 32.7502H40.5501L42.5038 34.8648C42.6699 35.0448 42.9541 35.0452 43.1203 34.8652L45.0763 32.7502H79.9509L83.5835 33.8689C83.9849 33.9929 84.3499 33.5945 84.1922 33.2046ZM80.2161 3.31015L80.2495 3.29499L81.0734 2.92182L82.1337 2.44137C82.2673 2.38073 82.4117 2.50318 82.374 2.64545L81.8266 4.7239C81.8068 4.79892 81.7396 4.85218 81.662 4.85412L81.0734 4.8685L80.4417 4.88405C80.352 4.88638 80.2751 4.81991 80.2643 4.73051L80.1664 3.9181L80.1148 3.49012C80.1055 3.41432 80.1466 3.34163 80.2161 3.31015ZM46.3797 3.20092C46.674 3.10219 51.5194 3.27788 51.5194 3.27788H45.7736C45.9705 3.27244 46.2209 3.25456 46.3797 3.20092ZM41.7917 2.70997L42.64 1.73002C42.7313 1.62468 42.8947 1.62468 42.986 1.73002L43.8355 2.70997C43.912 2.79821 43.91 2.92998 43.8304 3.01589L42.9809 3.93442C42.8905 4.03238 42.7355 4.03238 42.6451 3.93403L41.7964 3.0155C41.7172 2.92998 41.7152 2.79821 41.7917 2.70997ZM34.7437 3.20092C35.038 3.10219 39.8834 3.27788 39.8834 3.27788H34.1376C34.3345 3.27244 34.5849 3.25456 34.7437 3.20092ZM2.04022 2.78966L4.11622 3.33775C4.19115 3.35757 4.24435 3.42482 4.24629 3.50256L4.27657 4.72429C4.27851 4.81408 4.21212 4.89105 4.12282 4.90193L2.8839 5.05159C2.80858 5.06092 2.73559 5.01971 2.70414 4.95013L1.83678 3.03066C1.77621 2.89655 1.89812 2.75195 2.04022 2.78966ZM4.50176 31.9153C4.50059 31.9219 4.49826 31.9281 4.49593 31.9339C4.49361 31.9405 4.4905 31.9471 4.487 31.9534C4.48506 31.9569 4.48312 31.9604 4.48079 31.9639C4.47497 31.9732 4.46837 31.9817 4.46099 31.9895C4.45129 32.0004 4.44041 32.0097 4.42799 32.0179H4.4276C4.42061 32.0225 4.41324 32.0264 4.40547 32.0299L4.26764 32.0925L2.48788 32.8983C2.35393 32.959 2.20989 32.8369 2.24716 32.6946L2.72938 30.8646L2.79499 30.6162C2.81479 30.5408 2.88196 30.4879 2.95961 30.486L3.31176 30.477L4.17989 30.4556C4.26958 30.4537 4.34646 30.5202 4.35733 30.6096L4.43537 31.2576L4.50681 31.8496C4.50991 31.8721 4.50797 31.8947 4.50176 31.9153ZM34.1384 32.105C34.3353 32.0995 34.5849 32.0816 34.7437 32.0284C35.038 31.9293 39.8834 32.105 39.8834 32.105H34.1384ZM43.8762 32.1112C43.8661 32.1376 43.8506 32.1625 43.8304 32.1842L43.4088 32.6402L42.9809 33.1032C42.9339 33.1541 42.8699 33.1786 42.8062 33.1763C42.739 33.1786 42.6707 33.1525 42.6226 33.0981L42.5158 32.9628L41.9171 32.3149L41.914 32.3117C41.6612 32.0599 41.6667 32.0175 41.7478 31.932C41.756 31.9156 41.7793 31.8931 41.7917 31.8787L41.8247 31.8402L42.64 30.8988C42.6839 30.8478 42.7445 30.8218 42.8058 30.8203C42.8718 30.8175 42.9386 30.844 42.986 30.8984L43.1191 31.0519L43.4088 31.3594L43.8351 31.8123C43.8494 31.8278 43.8619 31.8449 43.8708 31.8632V31.9339C43.8735 31.9397 43.8758 31.9456 43.8778 31.9514C43.8797 31.9561 43.8813 31.9604 43.8825 31.965C43.8832 31.9681 43.884 31.9712 43.8848 31.9743C43.8863 31.979 43.8871 31.9833 43.8875 31.9879C43.8879 31.9887 43.8883 31.9891 43.8879 31.9899C43.8894 31.9961 43.8902 32.0027 43.8906 32.0089C43.8937 32.0435 43.889 32.0785 43.8762 32.1112ZM45.7744 32.105C45.9713 32.0995 46.2209 32.0816 46.3797 32.0284C46.674 31.9293 51.5194 32.105 51.5194 32.105H45.7744ZM79.6186 29.1845C79.3623 29.2051 79.1636 29.4174 79.1593 29.6747L79.1344 31.2576H44.935L43.1292 29.1752C42.9619 28.982 42.6622 28.982 42.4948 29.1752L40.6918 31.2576H5.3994L5.11404 29.616C5.08686 29.4586 4.94437 29.3474 4.78518 29.3599L3.31176 29.4734V5.99461L4.98164 5.79248C5.17499 5.76916 5.31865 5.60279 5.31399 5.40765L5.2771 3.9181H40.804L42.397 5.64243C42.6206 5.88499 43.0034 5.88499 43.2271 5.64282L44.8224 3.9181H79.1224L79.3177 5.52504C79.3402 5.7089 79.4982 5.84573 79.6834 5.84107L81.0734 5.80531V29.0683L79.6186 29.1845ZM82.5814 32.5504L80.5054 32.0019C80.43 31.9821 80.3772 31.9153 80.3753 31.8375L80.345 30.6158C80.3431 30.5256 80.4095 30.4486 80.4988 30.4378L81.7373 30.2881C81.813 30.2792 81.886 30.32 81.9174 30.3896L82.7848 32.3094C82.8454 32.4435 82.7235 32.5881 82.5814 32.5504Z" fill="#523C2E"/>
<path d="M32.6064 24.4488L27.1953 14.1051H23.4486L23.9518 14.5487C24.4891 15.0221 24.7846 15.7222 24.7174 16.4355C24.571 17.9876 24.2069 19.422 23.5833 20.9209C23.5212 21.0705 23.4599 21.2147 23.3993 21.3543L21.9088 21.4635L22.0916 22.1185L23.0883 22.0407C22.4617 23.3631 21.8354 24.3128 20.8252 25.6884C20.0518 26.7419 19.0737 27.6942 18.0045 28.4483C18.4347 28.1451 18.8928 27.9232 19.3579 27.6853C20.1414 27.2837 20.8504 26.7368 21.4382 26.0806C22.0858 25.3584 22.5587 24.4904 23.0732 23.6726C23.4261 23.1113 23.767 22.5426 24.0877 21.9626L28.7987 21.5941C29.8272 23.5804 30.7754 25.4121 30.7754 25.4121C30.7754 25.4121 31.6909 25.4906 32.4231 25.4121C33.1554 25.3335 33.4959 24.4488 33.4959 24.4488H32.6064ZM24.4534 21.2769C24.7955 20.6107 25.1072 19.9292 25.3844 19.2334C25.5475 18.8249 25.6985 18.4117 25.8395 17.995C25.9136 17.7762 25.9847 17.5561 26.053 17.3353C26.0899 17.2168 26.1256 17.0982 26.1609 16.9797C26.1761 16.9288 26.2728 16.7146 26.2506 16.6714C26.2506 16.6718 27.3614 18.8171 28.4819 20.9819L24.4534 21.2769Z" fill="#523C2E"/>
<path d="M41.761 24.9931V25.4121H39.3026L39.3546 25.0455H40.375V15.8859C39.0421 15.1446 37.5391 17.4081 36.9113 18.4129C36.4912 19.0854 36.1927 19.8294 36.0067 20.5994C35.3307 23.4024 35.2547 27.6666 38.7004 28.4483C37.3132 28.5576 36.0463 28.193 35.1848 27.0357C33.4073 24.6479 33.6651 21.2392 34.4114 18.5307C35.2484 15.4929 38.1774 14.1837 39.6683 14.1052C41.1592 14.0266 41.3421 14.3407 41.3421 14.3407L41.3425 24.9931H41.761Z" fill="#523C2E"/>
<path d="M49.8958 18.8451C49.0847 18.2951 47.9079 18.2687 47.3325 18.4782C46.7571 18.6877 45.8936 19.6307 45.8936 19.6307C46.8503 19.1786 47.8722 18.8568 48.856 19.4927C49.6407 20 50.0864 20.9302 49.9901 21.8608C49.8604 23.1167 48.901 23.9587 47.7099 24.1316C46.9854 24.2366 45.4782 24.2727 45.3446 23.2706C45.2398 22.485 45.0045 15.9119 45.0045 15.9119L44.9311 7.72633C44.9284 7.40137 44.6644 7.13937 44.3398 7.13937H43.648C42.583 7.13937 41.5541 7.52498 40.7512 8.22505L40.375 8.55352H42.5329C42.8 8.55352 43.0167 8.77042 43.0167 9.03786V24.3703C43.0167 24.3703 42.5721 25.1823 42.7029 25.7845C42.8334 26.387 42.814 26.0725 42.814 26.0725C42.814 26.0725 42.7814 25.3394 44.115 25.4179C45.4491 25.4964 48.9278 25.4121 48.9278 25.4121C48.9278 25.4121 51.4127 24.5798 51.3867 22.4586C51.3603 20.3378 50.7064 19.3948 49.8958 18.8451ZM43.6969 23.7799V24.1437C43.6685 23.94 43.6969 23.7799 43.6969 23.7799Z" fill="#523C2E"/>
<path d="M43.6969 23.7799V24.1437C43.6685 23.94 43.6969 23.7799 43.6969 23.7799Z" fill="#523C2E"/>
<path d="M52.1177 25.4121H55.0483C55.0483 25.4121 53.9235 24.7633 53.8451 23.7682C53.7565 22.6436 53.8086 21.4958 53.8113 20.3689C53.8152 18.781 53.8295 17.1935 53.8412 15.6056C53.842 15.5243 53.8423 15.4427 53.8431 15.3615C54.3851 15.3786 54.9264 15.3012 55.4684 15.307C56.0107 15.3129 56.5749 15.412 57.0086 15.7381C57.4019 16.0343 57.6515 16.4965 57.749 16.9793C57.8468 17.4621 57.8025 17.9651 57.6892 18.4448C57.5304 19.1157 57.0202 19.4989 56.3594 19.607C55.8597 19.6886 54.7769 19.8196 54.566 19.2377C54.646 19.4581 54.6666 19.6051 54.8631 19.7718C55.0432 19.9246 55.268 20.0334 55.4928 20.1022C56.4343 20.3903 58.8931 20.3642 59.2593 18.8191C59.6254 17.2739 59.573 15.6503 58.7883 14.8647C58.0037 14.0791 57.2446 14.1051 56.3031 14.1051C55.3616 14.1051 52.1185 14.1051 52.1185 14.1051L51.9418 14.359L51.5951 14.6287H52.0661L52.1177 25.4121Z" fill="#523C2E"/>
<path d="M61.8229 14.191V15.1033L59.8413 19.9529C59.8044 20.0427 59.8141 20.1442 59.8673 20.2262L63.1298 25.2698C63.1873 25.3584 63.2874 25.412 63.3954 25.412H66.2036L68.1526 22.5795C67.8044 22.817 67.4487 23.0452 67.0892 23.2663C66.4746 23.6438 65.846 24.0795 65.0843 24.0193C64.4778 23.9715 63.8589 23.7161 63.5379 23.1835L62.0085 20.6464C61.9503 20.55 62.0225 20.4287 62.1378 20.4295C63.1713 20.4384 66.939 20.3902 67.6821 19.2338L62.2846 19.137C62.1619 19.1347 62.0784 19.0154 62.1223 18.9042L63.1546 16.2839C63.2665 16.0001 63.5472 15.8127 63.8605 15.8127H66.2514C66.5041 15.8127 66.7188 15.9943 66.7491 16.2372C66.8194 16.7993 66.8974 17.7404 66.6621 17.9161C66.322 18.1695 68.8069 16.3449 67.8393 15.0271C66.8718 13.7094 61.8229 14.191 61.8229 14.191Z" fill="#523C2E"/>
<path d="M69.8788 14.1051H72.0267C72.0395 14.1051 72.05 14.1156 72.05 14.1284V19.2393C72.05 19.2521 72.0577 19.2626 72.0705 19.2626C72.3943 19.2657 76.4186 19.2641 76.8181 19.2641C77.687 19.2669 77.2359 17.6428 77.1085 17.2039C76.7711 16.0405 76.0226 15.3521 75.0244 14.7006C74.7503 14.5218 74.3682 14.3368 74.1593 14.1071C75.2748 14.1028 76.3918 14.1051 77.5077 14.1051C77.5131 14.1051 77.5174 14.1059 77.5216 14.1098C77.6393 14.2116 79.6559 16.0044 79.4781 19.0807C79.3162 21.8841 78.5571 25.0731 76.3472 26.9863C75.4643 27.7509 74.3589 28.2656 73.2073 28.4483C73.4259 28.4137 73.733 28.133 73.9155 28.0098C74.1415 27.8574 74.3671 27.7078 74.5759 27.5321C74.9856 27.1877 75.3591 26.7998 75.6895 26.3784C76.9478 24.7749 77.7775 22.4609 77.2336 20.4334C77.2308 20.4229 77.2211 20.4155 77.2103 20.4155H72.0208C72.008 20.4155 71.9975 20.426 71.9975 20.4388V25.3879C71.9975 25.4008 71.9871 25.4113 71.9743 25.4113H68.9404C68.9404 25.4113 69.6261 24.9254 69.6284 24.9238L70.0982 24.4927C70.2275 24.3435 70.1669 24.2611 70.1669 24.064V15.1294C70.1669 14.8674 69.9549 14.6551 69.6933 14.6551C69.6804 14.6551 69.67 14.6447 69.67 14.6318V13.9741L69.8788 14.1051Z" fill="#523C2E"/>
<path d="M7.66798 27.2398C7.7301 27.433 7.81319 27.7035 7.87687 27.9119L9.38368 28.3488C8.78616 28.0584 7.92113 27.5955 7.66798 27.2398ZM13.8886 22.1375V22.1379C13.8987 22.1422 13.9088 22.1465 13.9189 22.1504V22.0656C13.9096 22.0905 13.8995 22.1142 13.8886 22.1375ZM13.9189 22.1504V22.5325L14.054 22.197C14.0121 22.1849 13.967 22.169 13.9189 22.1504Z" fill="#523C2E"/>
<path d="M22.5649 12.1301C22.3751 11.2403 22.0866 10.3956 21.6549 9.66288C20.1717 7.14557 17.44 6.68416 14.7478 6.676C12.7933 6.67017 10.8424 6.61808 8.88634 6.68105C8.43092 6.69582 6.29784 6.56366 6.37278 7.45421L7.6016 7.89967H15.0425V22.677C15.0425 23.0238 15.1951 23.3406 15.435 23.5548C15.6497 23.7468 15.9343 23.8568 16.243 23.8335C16.3408 23.8261 16.5124 23.7359 16.653 23.6788V8.76301C16.653 8.76301 16.6184 8.75951 16.5707 8.75251C16.5536 8.7494 16.5365 8.7494 16.5159 8.7459C16.4919 8.74241 16.4682 8.73891 16.4406 8.73541C16.3824 8.7288 16.321 8.7218 16.2663 8.7117C16.2869 8.7082 16.314 8.7117 16.3447 8.71481C16.3859 8.71831 16.4305 8.7253 16.4888 8.7323C16.5159 8.73541 16.5435 8.73541 16.5742 8.73891C16.6359 8.7459 16.7077 8.75251 16.7827 8.76301C16.8894 8.77739 16.9939 8.79683 17.096 8.82015V15.426C17.096 15.426 17.2268 14.6928 17.4621 14.1168C17.6512 13.6542 17.5367 10.2553 17.4842 8.93249C18.6688 9.35113 19.5241 10.3626 20.0999 11.484C20.918 13.0777 20.8624 15.3128 20.8162 17.0784C20.7914 18.0226 20.7068 18.9742 20.4264 19.8756C19.9019 21.5618 18.5411 22.8846 16.9644 23.6313H16.964C16.9019 23.6609 16.8397 23.6893 16.7768 23.7169C16.7761 23.7176 16.7749 23.718 16.7741 23.718C16.7341 23.7359 16.6938 23.7534 16.653 23.7693V23.7647C16.0489 23.9882 14.8193 24.3439 14.6768 24.12C14.6589 24.092 14.6442 23.9699 14.6317 23.7693C14.5719 22.7999 14.57 19.9918 14.5875 17.0492C14.6127 12.9444 14.6768 8.57798 14.6768 8.57798V8.21142L7.6016 7.89967C7.6016 7.89967 6.47566 7.84486 5.01078 7.95098C3.54628 8.0571 3.75516 8.69459 3.75516 8.69459C3.75516 8.69459 11.8375 8.69459 11.8379 8.69459C11.5603 8.69459 10.7193 9.7484 10.5038 9.95908C10.0461 10.4073 9.59956 10.8691 9.19772 11.3686C8.40723 12.3512 7.86795 13.3798 7.77244 14.6439C7.49095 18.3611 9.39495 22.3618 12.8927 23.9147C11.655 23.6508 8.72405 23.1089 7.52939 23.5897C6.42442 24.0344 5.58695 25.2499 6.11536 26.6991C6.29746 27.1978 6.70668 27.6067 7.10541 27.9398C7.19083 28.0114 7.80388 28.3527 7.81631 28.4483L7.74759 27.92C7.59306 27.7377 7.40942 27.5356 7.37253 27.4878C7.1291 27.1741 6.95244 26.8009 6.9175 26.4013C6.82432 25.3436 7.72313 24.5059 8.66581 24.2164C9.2381 24.0407 9.85076 24.036 10.4366 24.1417C10.9643 24.237 11.5063 24.4714 12.0471 24.5133C11.6461 24.485 11.2174 24.3621 10.8292 24.3003C10.3664 24.2268 9.91405 24.2008 9.44465 24.2296C9.19733 24.2451 8.94302 24.2782 8.72948 24.4037C8.04499 24.8049 7.47464 26.2268 8.01975 26.909C8.36025 27.335 9.23422 28.0425 9.69197 28.4016C9.46134 28.0821 8.17389 26.212 9.22956 25.6733C10.2743 25.1403 12.1019 25.5866 13.2775 25.5846C15.2199 25.5811 17.2171 25.4357 18.8924 24.38C20.3884 23.437 21.6937 22.0108 22.3308 20.3444C23.2743 17.8768 23.1085 14.6781 22.5649 12.1301ZM10.3594 12.2323C10.8233 10.7027 12.1663 9.26017 13.566 8.57798C13.6083 8.63123 13.7737 8.77778 13.7749 8.84192C13.7749 8.84192 13.8657 14.0208 13.9189 17.0492V17.0582C13.9348 17.9526 13.9469 18.6581 13.9527 18.9854V18.9858C13.9418 18.9866 13.9305 18.9878 13.9189 18.9885C13.7508 19.0014 13.4864 19.0126 13.1932 18.9897C13.1925 18.9897 13.1921 18.9893 13.1913 18.9893C13.1909 18.9893 13.1905 18.9893 13.1898 18.9889C13.0127 18.9567 12.8636 18.9298 12.8217 18.9178C12.0126 18.6811 11.3716 18.126 10.9592 17.396C10.7907 17.0974 10.6611 16.7806 10.5582 16.4533C10.4273 16.0359 10.3407 15.6021 10.274 15.169C10.1241 14.193 10.0725 13.1772 10.3594 12.2323ZM13.9189 22.5324V22.1503C13.9088 22.1464 13.8987 22.1422 13.8886 22.1379C12.9587 21.757 10.9984 20.2546 10.1858 19.4219C10.1854 19.4216 10.1854 19.4216 10.1854 19.4216C10.0026 19.1934 9.84028 18.9481 9.69973 18.6904C8.99194 17.3936 8.82072 15.7739 9.24198 14.3737C9.11502 14.7951 9.52735 15.8007 9.65314 16.2271C9.85309 16.9042 10.1101 17.5763 10.4875 18.1761C10.8074 18.683 11.2337 19.088 11.7291 19.3578C11.8611 19.4297 11.9978 19.4915 12.1391 19.5436H12.1395L12.1671 19.5537L13.9189 20.2002V19.8701C13.9783 19.9774 14.0059 20.1185 14.0191 20.2371L13.9189 20.2002V22.1503C13.967 22.169 14.0121 22.1849 14.054 22.197L13.9189 22.5324Z" fill="#523C2E"/>
<path d="M13.9527 18.9854V18.9858C13.9418 18.9866 13.9305 18.9878 13.9189 18.9886V17.0582C13.9348 17.9526 13.9468 18.6581 13.9527 18.9854Z" fill="#523C2E"/>
<path d="M14.0191 20.2371L13.9189 20.2002V19.8701C13.9783 19.9774 14.0059 20.1185 14.0191 20.2371Z" fill="#523C2E"/>
<path d="M14.054 22.197L13.9189 22.5325V22.1504C13.967 22.169 14.0121 22.185 14.054 22.197Z" fill="#523C2E"/>
<path d="M43.6969 23.7799V24.1437C43.6685 23.94 43.6969 23.7799 43.6969 23.7799Z" fill="#523C2E"/>
<path d="M14.0191 20.2371L13.9189 20.2002V19.8701C13.9783 19.9774 14.0059 20.1185 14.0191 20.2371Z" fill="#523C2E"/>
<path d="M14.054 22.197L13.9189 22.5325V22.1504C13.967 22.169 14.0121 22.185 14.054 22.197Z" fill="#523C2E"/>
<path d="M42.8062 33.1762C42.7391 33.1786 42.6707 33.1525 42.6226 33.0981L42.5158 32.9628L42.6451 33.1028C42.689 33.1502 42.7472 33.1747 42.8062 33.1762Z" fill="#523C2E"/>
<path d="M43.8708 31.8632V31.9335C43.8685 31.9289 43.8661 31.9238 43.8634 31.9191C43.8623 31.9164 43.8607 31.9137 43.8584 31.911C43.8564 31.9071 43.8541 31.9036 43.8514 31.8997C43.8498 31.897 43.8479 31.8943 43.846 31.8919C43.8428 31.8873 43.839 31.883 43.8355 31.8787L43.4088 31.3862L43.1191 31.0519L43.4088 31.3594L43.8351 31.8122C43.8495 31.8278 43.8619 31.8449 43.8708 31.8632Z" fill="#523C2E"/>
</svg>
